<mxfile host="65bd71144e">
    <diagram name="페이지-1" id="4Kzpew66DPg3UYz8mGqC">
        <mxGraphModel dx="937" dy="571" grid="1" gridSize="10" guides="1" tooltips="1" connect="1" arrows="1" fold="1" page="1" pageScale="1" pageWidth="850" pageHeight="1100" background="#ffffff" math="0" shadow="0">
            <root>
                <mxCell id="0"/>
                <mxCell id="1" parent="0"/>
                <mxCell id="127" value="" style="rounded=0;whiteSpace=wrap;html=1;fontStyle=1" parent="1" vertex="1">
                    <mxGeometry x="180" y="150" width="440" height="720" as="geometry"/>
                </mxCell>
                <mxCell id="128" value="" style="ellipse;whiteSpace=wrap;html=1;" parent="1" vertex="1">
                    <mxGeometry x="246.25" y="767" width="33.75" height="26" as="geometry"/>
                </mxCell>
                <mxCell id="129" value="" style="ellipse;whiteSpace=wrap;html=1;" parent="1" vertex="1">
                    <mxGeometry x="271.56" y="788" width="58.44" height="32" as="geometry"/>
                </mxCell>
                <mxCell id="130" value="" style="ellipse;whiteSpace=wrap;html=1;" parent="1" vertex="1">
                    <mxGeometry x="327.5" y="772" width="33.75" height="26" as="geometry"/>
                </mxCell>
                <mxCell id="131" value="" style="ellipse;whiteSpace=wrap;html=1;" parent="1" vertex="1">
                    <mxGeometry x="367.25" y="772" width="33.75" height="26" as="geometry"/>
                </mxCell>
                <mxCell id="132" value="" style="ellipse;whiteSpace=wrap;html=1;" parent="1" vertex="1">
                    <mxGeometry x="371.37" y="739" width="33.75" height="26" as="geometry"/>
                </mxCell>
                <mxCell id="133" value="" style="ellipse;whiteSpace=wrap;html=1;" parent="1" vertex="1">
                    <mxGeometry x="367.25" y="710" width="33.75" height="26" as="geometry"/>
                </mxCell>
                <mxCell id="134" value="" style="ellipse;whiteSpace=wrap;html=1;" parent="1" vertex="1">
                    <mxGeometry x="376" y="625.9999999999999" width="56" height="21.47" as="geometry"/>
                </mxCell>
                <mxCell id="135" value="" style="ellipse;whiteSpace=wrap;html=1;" parent="1" vertex="1">
                    <mxGeometry x="430" y="610" width="33" height="21.47" as="geometry"/>
                </mxCell>
                <mxCell id="136" value="" style="ellipse;whiteSpace=wrap;html=1;" parent="1" vertex="1">
                    <mxGeometry x="463" y="595.38" width="33" height="21.47" as="geometry"/>
                </mxCell>
                <mxCell id="137" value="" style="ellipse;whiteSpace=wrap;html=1;" parent="1" vertex="1">
                    <mxGeometry x="500" y="577.5" width="40" height="22.5" as="geometry"/>
                </mxCell>
                <mxCell id="138" value="" style="ellipse;whiteSpace=wrap;html=1;" parent="1" vertex="1">
                    <mxGeometry x="512" y="550" width="38" height="20" as="geometry"/>
                </mxCell>
                <mxCell id="139" value="" style="ellipse;whiteSpace=wrap;html=1;" parent="1" vertex="1">
                    <mxGeometry x="480" y="530" width="40" height="20" as="geometry"/>
                </mxCell>
                <mxCell id="140" value="" style="rounded=0;whiteSpace=wrap;html=1;" parent="1" vertex="1">
                    <mxGeometry x="642.37" y="439.38" width="93.74" height="50.62" as="geometry"/>
                </mxCell>
                <mxCell id="141" value="" style="rounded=0;whiteSpace=wrap;html=1;" parent="1" vertex="1">
                    <mxGeometry x="640" y="369.38" width="93.74" height="50.62" as="geometry"/>
                </mxCell>
                <mxCell id="142" value="" style="rounded=0;whiteSpace=wrap;html=1;" parent="1" vertex="1">
                    <mxGeometry x="640" y="300" width="93.74" height="50.62" as="geometry"/>
                </mxCell>
                <mxCell id="143" value="" style="ellipse;whiteSpace=wrap;html=1;" parent="1" vertex="1">
                    <mxGeometry x="266.25" y="716.25" width="67.5" height="37.5" as="geometry"/>
                </mxCell>
                <mxCell id="144" value="회원" style="shape=umlActor;verticalLabelPosition=bottom;verticalAlign=top;html=1;outlineConnect=0;" parent="1" vertex="1">
                    <mxGeometry x="90" y="550" width="30" height="60" as="geometry"/>
                </mxCell>
                <mxCell id="145" value="비회원" style="shape=umlActor;verticalLabelPosition=bottom;verticalAlign=top;html=1;outlineConnect=0;" parent="1" vertex="1">
                    <mxGeometry x="90" y="360" width="30" height="60" as="geometry"/>
                </mxCell>
                <mxCell id="146" value="&lt;font style=&quot;font-size: 20px;&quot;&gt;Resumate&lt;/font&gt;" style="text;html=1;strokeColor=none;fillColor=none;align=center;verticalAlign=middle;whiteSpace=wrap;rounded=0;" parent="1" vertex="1">
                    <mxGeometry x="350" y="150" width="100" height="30" as="geometry"/>
                </mxCell>
                <mxCell id="147" value="" style="endArrow=none;html=1;rounded=0;entryX=0;entryY=0.75;entryDx=0;entryDy=0;endFill=0;" parent="1" target="210" edge="1">
                    <mxGeometry width="50" height="50" relative="1" as="geometry">
                        <mxPoint x="130" y="380" as="sourcePoint"/>
                        <mxPoint x="221" y="330" as="targetPoint"/>
                    </mxGeometry>
                </mxCell>
                <mxCell id="148" value="" style="endArrow=none;html=1;rounded=0;endFill=0;" parent="1" target="212" edge="1">
                    <mxGeometry width="50" height="50" relative="1" as="geometry">
                        <mxPoint x="130" y="380" as="sourcePoint"/>
                        <mxPoint x="180" y="380" as="targetPoint"/>
                    </mxGeometry>
                </mxCell>
                <mxCell id="149" value="" style="endArrow=none;html=1;rounded=0;entryX=0;entryY=0.75;entryDx=0;entryDy=0;endFill=0;" parent="1" target="213" edge="1">
                    <mxGeometry width="50" height="50" relative="1" as="geometry">
                        <mxPoint x="130" y="570.0000000000002" as="sourcePoint"/>
                        <mxPoint x="223.5999999999999" y="390" as="targetPoint"/>
                    </mxGeometry>
                </mxCell>
                <mxCell id="150" value="" style="endArrow=none;html=1;rounded=0;entryX=0;entryY=0.5;entryDx=0;entryDy=0;endFill=0;" parent="1" target="207" edge="1">
                    <mxGeometry width="50" height="50" relative="1" as="geometry">
                        <mxPoint x="130" y="570.0000000000002" as="sourcePoint"/>
                        <mxPoint x="190" y="520" as="targetPoint"/>
                    </mxGeometry>
                </mxCell>
                <mxCell id="151" value="" style="endArrow=none;html=1;rounded=0;entryX=0;entryY=0.75;entryDx=0;entryDy=0;endFill=0;" parent="1" target="204" edge="1">
                    <mxGeometry width="50" height="50" relative="1" as="geometry">
                        <mxPoint x="130" y="570.0000000000002" as="sourcePoint"/>
                        <mxPoint x="250" y="520" as="targetPoint"/>
                    </mxGeometry>
                </mxCell>
                <mxCell id="152" value="" style="endArrow=none;html=1;rounded=0;endFill=0;entryX=0;entryY=0.5;entryDx=0;entryDy=0;" parent="1" target="196" edge="1">
                    <mxGeometry width="50" height="50" relative="1" as="geometry">
                        <mxPoint x="130" y="570.0000000000002" as="sourcePoint"/>
                        <mxPoint x="340" y="480" as="targetPoint"/>
                    </mxGeometry>
                </mxCell>
                <mxCell id="153" value="" style="endArrow=none;html=1;rounded=0;entryX=0.164;entryY=0.022;entryDx=0;entryDy=0;entryPerimeter=0;endFill=0;" parent="1" target="154" edge="1">
                    <mxGeometry width="50" height="50" relative="1" as="geometry">
                        <mxPoint x="130" y="570.0000000000002" as="sourcePoint"/>
                        <mxPoint x="180" y="605" as="targetPoint"/>
                    </mxGeometry>
                </mxCell>
                <mxCell id="154" value="자기소개서" style="text;html=1;strokeColor=none;fillColor=none;align=center;verticalAlign=middle;whiteSpace=wrap;rounded=0;" parent="1" vertex="1">
                    <mxGeometry x="266.25" y="720" width="70" height="30" as="geometry"/>
                </mxCell>
                <mxCell id="155" value="" style="endArrow=classic;html=1;rounded=0;exitX=0.013;exitY=0.66;exitDx=0;exitDy=0;exitPerimeter=0;entryX=0.896;entryY=0.011;entryDx=0;entryDy=0;entryPerimeter=0;" parent="1" source="156" target="196" edge="1">
                    <mxGeometry width="50" height="50" relative="1" as="geometry">
                        <mxPoint x="430" y="540" as="sourcePoint"/>
                        <mxPoint x="410" y="560" as="targetPoint"/>
                    </mxGeometry>
                </mxCell>
                <mxCell id="156" value="추가" style="text;strokeColor=none;fillColor=none;align=left;verticalAlign=middle;spacingLeft=4;spacingRight=4;overflow=hidden;points=[[0,0.5],[1,0.5]];portConstraint=eastwest;rotatable=0;whiteSpace=wrap;html=1;" parent="1" vertex="1">
                    <mxGeometry x="480" y="530" width="40" height="20" as="geometry"/>
                </mxCell>
                <mxCell id="157" value="" style="endArrow=classic;html=1;rounded=0;entryX=0.964;entryY=0.299;entryDx=0;entryDy=0;exitX=0;exitY=0.5;exitDx=0;exitDy=0;entryPerimeter=0;" parent="1" source="158" target="195" edge="1">
                    <mxGeometry width="50" height="50" relative="1" as="geometry">
                        <mxPoint x="480" y="510" as="sourcePoint"/>
                        <mxPoint x="428" y="564" as="targetPoint"/>
                    </mxGeometry>
                </mxCell>
                <mxCell id="158" value="수정" style="text;strokeColor=none;fillColor=none;align=left;verticalAlign=middle;spacingLeft=4;spacingRight=4;overflow=hidden;points=[[0,0.5],[1,0.5]];portConstraint=eastwest;rotatable=0;whiteSpace=wrap;html=1;" parent="1" vertex="1">
                    <mxGeometry x="512" y="550" width="38" height="20" as="geometry"/>
                </mxCell>
                <mxCell id="159" value="" style="endArrow=classic;html=1;rounded=0;entryX=0;entryY=0.5;entryDx=0;entryDy=0;exitX=0;exitY=0.5;exitDx=0;exitDy=0;" parent="1" source="160" edge="1">
                    <mxGeometry width="50" height="50" relative="1" as="geometry">
                        <mxPoint x="495" y="525" as="sourcePoint"/>
                        <mxPoint x="430" y="570.0000000000002" as="targetPoint"/>
                    </mxGeometry>
                </mxCell>
                <mxCell id="160" value="복사" style="text;strokeColor=none;fillColor=none;align=left;verticalAlign=middle;spacingLeft=4;spacingRight=4;overflow=hidden;points=[[0,0.5],[1,0.5]];portConstraint=eastwest;rotatable=0;whiteSpace=wrap;html=1;" parent="1" vertex="1">
                    <mxGeometry x="500" y="578" width="40" height="22" as="geometry"/>
                </mxCell>
                <mxCell id="161" value="" style="endArrow=classic;html=1;rounded=0;exitX=-0.061;exitY=0.232;exitDx=0;exitDy=0;exitPerimeter=0;entryX=0.99;entryY=0.646;entryDx=0;entryDy=0;entryPerimeter=0;" parent="1" source="162" target="195" edge="1">
                    <mxGeometry width="50" height="50" relative="1" as="geometry">
                        <mxPoint x="460" y="590" as="sourcePoint"/>
                        <mxPoint x="433.88" y="575.66" as="targetPoint"/>
                    </mxGeometry>
                </mxCell>
                <mxCell id="162" value="조회" style="text;html=1;strokeColor=none;fillColor=none;align=center;verticalAlign=middle;whiteSpace=wrap;rounded=0;" parent="1" vertex="1">
                    <mxGeometry x="465.5" y="596.85" width="28" height="20" as="geometry"/>
                </mxCell>
                <mxCell id="163" value="" style="endArrow=classic;html=1;rounded=0;exitX=0.371;exitY=0.133;exitDx=0;exitDy=0;exitPerimeter=0;entryX=0.912;entryY=1.001;entryDx=0;entryDy=0;entryPerimeter=0;" parent="1" source="164" target="196" edge="1">
                    <mxGeometry width="50" height="50" relative="1" as="geometry">
                        <mxPoint x="390" y="550" as="sourcePoint"/>
                        <mxPoint x="340" y="600" as="targetPoint"/>
                    </mxGeometry>
                </mxCell>
                <mxCell id="164" value="삭제" style="text;strokeColor=none;fillColor=none;align=left;verticalAlign=middle;spacingLeft=4;spacingRight=4;overflow=hidden;points=[[0,0.5],[1,0.5]];portConstraint=eastwest;rotatable=0;whiteSpace=wrap;html=1;" parent="1" vertex="1">
                    <mxGeometry x="428" y="605.73" width="35" height="30" as="geometry"/>
                </mxCell>
                <mxCell id="165" value="" style="endArrow=classic;html=1;rounded=0;exitX=0.479;exitY=0.049;exitDx=0;exitDy=0;exitPerimeter=0;entryX=0.593;entryY=1.044;entryDx=0;entryDy=0;entryPerimeter=0;" parent="1" source="166" target="195" edge="1">
                    <mxGeometry width="50" height="50" relative="1" as="geometry">
                        <mxPoint x="418" y="609" as="sourcePoint"/>
                        <mxPoint x="412.0899999999999" y="588.825" as="targetPoint"/>
                    </mxGeometry>
                </mxCell>
                <mxCell id="166" value="다운로드" style="text;strokeColor=none;fillColor=none;align=left;verticalAlign=middle;spacingLeft=4;spacingRight=4;overflow=hidden;points=[[0,0.5],[1,0.5]];portConstraint=eastwest;rotatable=0;whiteSpace=wrap;html=1;" parent="1" vertex="1">
                    <mxGeometry x="375" y="621.85" width="65" height="30.38" as="geometry"/>
                </mxCell>
                <mxCell id="167" value="" style="endArrow=classic;html=1;rounded=0;dashed=1;entryX=0;entryY=1;entryDx=0;entryDy=0;exitX=0.75;exitY=0;exitDx=0;exitDy=0;" parent="1" source="154" target="196" edge="1">
                    <mxGeometry width="50" height="50" relative="1" as="geometry">
                        <mxPoint x="340" y="600" as="sourcePoint"/>
                        <mxPoint x="390" y="550" as="targetPoint"/>
                    </mxGeometry>
                </mxCell>
                <mxCell id="168" value="" style="endArrow=classic;html=1;rounded=0;entryX=0.551;entryY=0.08;entryDx=0;entryDy=0;entryPerimeter=0;exitX=0.551;exitY=0.08;exitDx=0;exitDy=0;exitPerimeter=0;" parent="1" source="169" edge="1">
                    <mxGeometry width="50" height="50" relative="1" as="geometry">
                        <mxPoint x="268.91666666666663" y="765" as="sourcePoint"/>
                        <mxPoint x="280.5833333333335" y="750.0000000000002" as="targetPoint"/>
                    </mxGeometry>
                </mxCell>
                <mxCell id="169" value="복사" style="text;strokeColor=none;fillColor=none;align=left;verticalAlign=middle;spacingLeft=4;spacingRight=4;overflow=hidden;points=[[0,0.5],[1,0.5]];portConstraint=eastwest;rotatable=0;whiteSpace=wrap;html=1;" parent="1" vertex="1">
                    <mxGeometry x="246.25" y="765" width="40" height="30" as="geometry"/>
                </mxCell>
                <mxCell id="170" value="" style="endArrow=classic;html=1;rounded=0;exitX=0.857;exitY=0.167;exitDx=0;exitDy=0;exitPerimeter=0;" parent="1" edge="1">
                    <mxGeometry width="50" height="50" relative="1" as="geometry">
                        <mxPoint x="368.25" y="725.0033327778706" as="sourcePoint"/>
                        <mxPoint x="328.2399999999998" y="725.0100000000002" as="targetPoint"/>
                    </mxGeometry>
                </mxCell>
                <mxCell id="171" value="수정" style="text;strokeColor=none;fillColor=none;align=left;verticalAlign=middle;spacingLeft=4;spacingRight=4;overflow=hidden;points=[[0,0.5],[1,0.5]];portConstraint=eastwest;rotatable=0;whiteSpace=wrap;html=1;" parent="1" vertex="1">
                    <mxGeometry x="366.25" y="710" width="40" height="30" as="geometry"/>
                </mxCell>
                <mxCell id="172" value="" style="endArrow=classic;html=1;rounded=0;entryX=0.15;entryY=0.267;entryDx=0;entryDy=0;entryPerimeter=0;exitX=1;exitY=0.5;exitDx=0;exitDy=0;" parent="1" edge="1">
                    <mxGeometry width="50" height="50" relative="1" as="geometry">
                        <mxPoint x="373.6500000000001" y="744.4760000000001" as="sourcePoint"/>
                        <mxPoint x="334.25" y="735.0000000000002" as="targetPoint"/>
                    </mxGeometry>
                </mxCell>
                <mxCell id="173" value="추가" style="text;strokeColor=none;fillColor=none;align=left;verticalAlign=middle;spacingLeft=4;spacingRight=4;overflow=hidden;points=[[0,0.5],[1,0.5]];portConstraint=eastwest;rotatable=0;whiteSpace=wrap;html=1;" parent="1" vertex="1">
                    <mxGeometry x="370.25" y="739" width="36" height="28" as="geometry"/>
                </mxCell>
                <mxCell id="174" value="" style="endArrow=classic;html=1;rounded=0;exitX=0.25;exitY=0;exitDx=0;exitDy=0;entryX=0.25;entryY=0;entryDx=0;entryDy=0;" parent="1" source="175" edge="1">
                    <mxGeometry width="50" height="50" relative="1" as="geometry">
                        <mxPoint x="370" y="770" as="sourcePoint"/>
                        <mxPoint x="331.25" y="742.5000000000002" as="targetPoint"/>
                    </mxGeometry>
                </mxCell>
                <mxCell id="175" value="조회" style="text;html=1;strokeColor=none;fillColor=none;align=center;verticalAlign=middle;whiteSpace=wrap;rounded=0;" parent="1" vertex="1">
                    <mxGeometry x="364" y="775" width="40" height="20" as="geometry"/>
                </mxCell>
                <mxCell id="176" value="" style="endArrow=classic;html=1;rounded=0;entryX=0.376;entryY=0.064;entryDx=0;entryDy=0;entryPerimeter=0;exitX=0.376;exitY=0.064;exitDx=0;exitDy=0;exitPerimeter=0;" parent="1" source="177" edge="1">
                    <mxGeometry width="50" height="50" relative="1" as="geometry">
                        <mxPoint x="335.2631578947369" y="772" as="sourcePoint"/>
                        <mxPoint x="322.25" y="749" as="targetPoint"/>
                    </mxGeometry>
                </mxCell>
                <mxCell id="177" value="삭제" style="text;strokeColor=none;fillColor=none;align=left;verticalAlign=middle;spacingLeft=4;spacingRight=4;overflow=hidden;points=[[0,0.5],[1,0.5]];portConstraint=eastwest;rotatable=0;whiteSpace=wrap;html=1;" parent="1" vertex="1">
                    <mxGeometry x="326.25" y="770" width="35" height="30" as="geometry"/>
                </mxCell>
                <mxCell id="178" value="" style="endArrow=classic;html=1;rounded=0;entryX=0.508;entryY=-0.005;entryDx=0;entryDy=0;entryPerimeter=0;exitX=0.508;exitY=-0.005;exitDx=0;exitDy=0;exitPerimeter=0;" parent="1" source="179" edge="1">
                    <mxGeometry width="50" height="50" relative="1" as="geometry">
                        <mxPoint x="301.385" y="781.4899999999999" as="sourcePoint"/>
                        <mxPoint x="300.25" y="754" as="targetPoint"/>
                    </mxGeometry>
                </mxCell>
                <mxCell id="179" value="다운로드" style="text;strokeColor=none;fillColor=none;align=left;verticalAlign=middle;spacingLeft=4;spacingRight=4;overflow=hidden;points=[[0,0.5],[1,0.5]];portConstraint=eastwest;rotatable=0;whiteSpace=wrap;html=1;" parent="1" vertex="1">
                    <mxGeometry x="271.25" y="788" width="58.75" height="30" as="geometry"/>
                </mxCell>
                <mxCell id="180" value="« actor »" style="text;html=1;align=center;verticalAlign=middle;whiteSpace=wrap;rounded=0;" parent="1" vertex="1">
                    <mxGeometry x="651.24" y="297.5" width="70" height="30" as="geometry"/>
                </mxCell>
                <mxCell id="181" value="워크넷" style="text;html=1;align=center;verticalAlign=middle;whiteSpace=wrap;rounded=0;" parent="1" vertex="1">
                    <mxGeometry x="656.24" y="323.13" width="60" height="30" as="geometry"/>
                </mxCell>
                <mxCell id="182" value="« actor »" style="text;html=1;strokeColor=none;fillColor=none;align=center;verticalAlign=middle;whiteSpace=wrap;rounded=0;" parent="1" vertex="1">
                    <mxGeometry x="651.74" y="368.37" width="70" height="30" as="geometry"/>
                </mxCell>
                <mxCell id="183" value="인증서비스" style="text;html=1;strokeColor=none;fillColor=none;align=center;verticalAlign=middle;whiteSpace=wrap;rounded=0;" parent="1" vertex="1">
                    <mxGeometry x="656.74" y="394" width="65" height="30" as="geometry"/>
                </mxCell>
                <mxCell id="184" value="« actor »" style="text;html=1;strokeColor=none;fillColor=none;align=center;verticalAlign=middle;whiteSpace=wrap;rounded=0;" parent="1" vertex="1">
                    <mxGeometry x="654.24" y="439.69" width="70" height="30" as="geometry"/>
                </mxCell>
                <mxCell id="185" value="이력서서비스" style="text;html=1;strokeColor=none;fillColor=none;align=center;verticalAlign=middle;whiteSpace=wrap;rounded=0;" parent="1" vertex="1">
                    <mxGeometry x="647.24" y="459.32" width="82.5" height="30" as="geometry"/>
                </mxCell>
                <mxCell id="186" value="" style="endArrow=none;html=1;rounded=0;exitX=0;exitY=0.5;exitDx=0;exitDy=0;entryX=1;entryY=0.5;entryDx=0;entryDy=0;endFill=0;" parent="1" source="141" target="199" edge="1">
                    <mxGeometry width="50" height="50" relative="1" as="geometry">
                        <mxPoint x="310" y="540" as="sourcePoint"/>
                        <mxPoint x="360" y="490" as="targetPoint"/>
                    </mxGeometry>
                </mxCell>
                <mxCell id="187" value="" style="endArrow=none;html=1;rounded=0;entryX=1;entryY=0.5;entryDx=0;entryDy=0;exitX=0;exitY=0.5;exitDx=0;exitDy=0;endFill=0;" parent="1" source="141" target="209" edge="1">
                    <mxGeometry width="50" height="50" relative="1" as="geometry">
                        <mxPoint x="310" y="540" as="sourcePoint"/>
                        <mxPoint x="360" y="490" as="targetPoint"/>
                    </mxGeometry>
                </mxCell>
                <mxCell id="188" value="" style="endArrow=none;html=1;rounded=0;entryX=1;entryY=0.5;entryDx=0;entryDy=0;exitX=0;exitY=0.5;exitDx=0;exitDy=0;endFill=0;" parent="1" source="142" target="212" edge="1">
                    <mxGeometry width="50" height="50" relative="1" as="geometry">
                        <mxPoint x="310" y="540" as="sourcePoint"/>
                        <mxPoint x="360" y="490" as="targetPoint"/>
                    </mxGeometry>
                </mxCell>
                <mxCell id="189" value="" style="endArrow=none;html=1;rounded=0;entryX=0.712;entryY=0.001;entryDx=0;entryDy=0;entryPerimeter=0;endFill=0;" parent="1" target="195" edge="1">
                    <mxGeometry width="50" height="50" relative="1" as="geometry">
                        <mxPoint x="640" y="460" as="sourcePoint"/>
                        <mxPoint x="410" y="550" as="targetPoint"/>
                    </mxGeometry>
                </mxCell>
                <mxCell id="190" value="" style="endArrow=none;html=1;rounded=0;entryX=0.75;entryY=0;entryDx=0;entryDy=0;exitX=0;exitY=0.5;exitDx=0;exitDy=0;endFill=0;" parent="1" source="219" target="154" edge="1">
                    <mxGeometry width="50" height="50" relative="1" as="geometry">
                        <mxPoint x="644.8699999999999" y="549.3800000000001" as="sourcePoint"/>
                        <mxPoint x="500" y="450" as="targetPoint"/>
                    </mxGeometry>
                </mxCell>
                <mxCell id="191" value="" style="endArrow=none;html=1;rounded=0;entryX=0.959;entryY=0.342;entryDx=0;entryDy=0;exitX=0;exitY=0.5;exitDx=0;exitDy=0;entryPerimeter=0;endFill=0;" parent="1" source="215" target="173" edge="1">
                    <mxGeometry width="50" height="50" relative="1" as="geometry">
                        <mxPoint x="510" y="720" as="sourcePoint"/>
                        <mxPoint x="560" y="670" as="targetPoint"/>
                    </mxGeometry>
                </mxCell>
                <mxCell id="192" value="" style="endArrow=none;html=1;rounded=0;exitX=0;exitY=0.5;exitDx=0;exitDy=0;endFill=0;" parent="1" source="215" edge="1">
                    <mxGeometry width="50" height="50" relative="1" as="geometry">
                        <mxPoint x="420" y="640" as="sourcePoint"/>
                        <mxPoint x="400" y="720.0000000000002" as="targetPoint"/>
                    </mxGeometry>
                </mxCell>
                <mxCell id="193" value="" style="endArrow=classic;html=1;rounded=0;dashed=1;entryX=0.194;entryY=0.972;entryDx=0;entryDy=0;exitX=0.5;exitY=0;exitDx=0;exitDy=0;entryPerimeter=0;" parent="1" source="196" target="199" edge="1">
                    <mxGeometry width="50" height="50" relative="1" as="geometry">
                        <mxPoint x="377.75" y="607.5" as="sourcePoint"/>
                        <mxPoint x="432" y="472.5" as="targetPoint"/>
                    </mxGeometry>
                </mxCell>
                <mxCell id="194" value="" style="group" parent="1" vertex="1" connectable="0">
                    <mxGeometry x="370" y="555" width="60" height="35" as="geometry"/>
                </mxCell>
                <mxCell id="195" value="" style="ellipse;whiteSpace=wrap;html=1;" parent="194" vertex="1">
                    <mxGeometry width="60" height="35" as="geometry"/>
                </mxCell>
                <mxCell id="196" value="이력서" style="text;html=1;strokeColor=none;fillColor=none;align=center;verticalAlign=middle;whiteSpace=wrap;rounded=0;" parent="194" vertex="1">
                    <mxGeometry x="3" y="5" width="54" height="25" as="geometry"/>
                </mxCell>
                <mxCell id="197" value="" style="group" parent="1" vertex="1" connectable="0">
                    <mxGeometry x="430" y="420" width="82" height="40" as="geometry"/>
                </mxCell>
                <mxCell id="198" value="" style="ellipse;whiteSpace=wrap;html=1;" parent="197" vertex="1">
                    <mxGeometry width="80" height="40" as="geometry"/>
                </mxCell>
                <mxCell id="199" value="사용자 인증" style="text;strokeColor=none;fillColor=none;align=left;verticalAlign=middle;spacingLeft=4;spacingRight=4;overflow=hidden;points=[[0,0.5],[1,0.5]];portConstraint=eastwest;rotatable=0;whiteSpace=wrap;html=1;" parent="197" vertex="1">
                    <mxGeometry x="2" y="4" width="80" height="30" as="geometry"/>
                </mxCell>
                <mxCell id="200" value="" style="endArrow=classic;html=1;rounded=0;dashed=1;entryX=0;entryY=0.5;entryDx=0;entryDy=0;exitX=1;exitY=0.25;exitDx=0;exitDy=0;" parent="1" source="207" target="198" edge="1">
                    <mxGeometry width="50" height="50" relative="1" as="geometry">
                        <mxPoint x="361.25" y="536.75" as="sourcePoint"/>
                        <mxPoint x="408.77" y="429.90999999999997" as="targetPoint"/>
                    </mxGeometry>
                </mxCell>
                <mxCell id="201" value="" style="endArrow=classic;html=1;rounded=0;dashed=1;entryX=0;entryY=0.5;entryDx=0;entryDy=0;exitX=1.019;exitY=0.395;exitDx=0;exitDy=0;exitPerimeter=0;" parent="1" source="204" target="198" edge="1">
                    <mxGeometry width="50" height="50" relative="1" as="geometry">
                        <mxPoint x="320" y="477.5" as="sourcePoint"/>
                        <mxPoint x="441.9200000000001" y="440.4799999999999" as="targetPoint"/>
                    </mxGeometry>
                </mxCell>
                <mxCell id="202" value="" style="group" parent="1" vertex="1" connectable="0">
                    <mxGeometry x="246.25" y="499.25" width="67.5" height="37.5" as="geometry"/>
                </mxCell>
                <mxCell id="203" value="" style="ellipse;whiteSpace=wrap;html=1;" parent="202" vertex="1">
                    <mxGeometry width="67.5" height="37.5" as="geometry"/>
                </mxCell>
                <mxCell id="204" value="회원탈퇴" style="text;html=1;strokeColor=none;fillColor=none;align=center;verticalAlign=middle;whiteSpace=wrap;rounded=0;" parent="202" vertex="1">
                    <mxGeometry x="3.75" y="3.75" width="60" height="30" as="geometry"/>
                </mxCell>
                <mxCell id="205" value="" style="group" parent="1" vertex="1" connectable="0">
                    <mxGeometry x="246.25" y="456.25" width="67.5" height="37.5" as="geometry"/>
                </mxCell>
                <mxCell id="206" value="" style="ellipse;whiteSpace=wrap;html=1;" parent="205" vertex="1">
                    <mxGeometry width="67.5" height="37.5" as="geometry"/>
                </mxCell>
                <mxCell id="207" value="암호변경" style="text;html=1;strokeColor=none;fillColor=none;align=center;verticalAlign=middle;whiteSpace=wrap;rounded=0;" parent="205" vertex="1">
                    <mxGeometry x="3.75" y="3.75" width="60" height="30" as="geometry"/>
                </mxCell>
                <mxCell id="208" value="" style="group" parent="1" vertex="1" connectable="0">
                    <mxGeometry x="220" y="297.5" width="70" height="42.5" as="geometry"/>
                </mxCell>
                <mxCell id="209" value="" style="ellipse;whiteSpace=wrap;html=1;" parent="208" vertex="1">
                    <mxGeometry width="70" height="42.5" as="geometry"/>
                </mxCell>
                <mxCell id="210" value="회원가입" style="text;html=1;strokeColor=none;fillColor=none;align=center;verticalAlign=middle;whiteSpace=wrap;rounded=0;" parent="208" vertex="1">
                    <mxGeometry x="6" y="6.25" width="60" height="30" as="geometry"/>
                </mxCell>
                <mxCell id="211" value="" style="group" parent="1" vertex="1" connectable="0">
                    <mxGeometry x="230" y="353.13" width="100" height="43.75" as="geometry"/>
                </mxCell>
                <mxCell id="212" value="" style="ellipse;whiteSpace=wrap;html=1;" parent="211" vertex="1">
                    <mxGeometry width="100" height="43.75" as="geometry"/>
                </mxCell>
                <mxCell id="213" value="채용공고 조회" style="text;html=1;strokeColor=none;fillColor=none;align=center;verticalAlign=middle;whiteSpace=wrap;rounded=0;" parent="211" vertex="1">
                    <mxGeometry x="9.25" y="6.8700000000000045" width="80" height="30" as="geometry"/>
                </mxCell>
                <mxCell id="214" value="" style="group" parent="1" vertex="1" connectable="0">
                    <mxGeometry x="644.87" y="707.19" width="93.74000000000001" height="55.620000000000005" as="geometry"/>
                </mxCell>
                <mxCell id="215" value="" style="rounded=0;whiteSpace=wrap;html=1;" parent="214" vertex="1">
                    <mxGeometry y="5" width="93.74" height="50.62" as="geometry"/>
                </mxCell>
                <mxCell id="216" value="« actor »" style="text;html=1;strokeColor=none;fillColor=none;align=center;verticalAlign=middle;whiteSpace=wrap;rounded=0;" parent="214" vertex="1">
                    <mxGeometry x="12.620000000000005" width="70" height="30" as="geometry"/>
                </mxCell>
                <mxCell id="217" value="텍스트생성&lt;br&gt;AI모델" style="text;html=1;strokeColor=none;fillColor=none;align=center;verticalAlign=middle;whiteSpace=wrap;rounded=0;" parent="214" vertex="1">
                    <mxGeometry x="7.1200000000000045" y="25" width="77.5" height="30" as="geometry"/>
                </mxCell>
                <mxCell id="222" value="" style="rounded=0;whiteSpace=wrap;html=1;fillColor=none;" vertex="1" parent="1">
                    <mxGeometry x="40" y="80" width="720" height="840" as="geometry"/>
                </mxCell>
                <mxCell id="218" value="" style="group" parent="1" vertex="1" connectable="0">
                    <mxGeometry x="644.87" y="594" width="93.74000000000001" height="55.620000000000005" as="geometry"/>
                </mxCell>
                <mxCell id="219" value="" style="rounded=0;whiteSpace=wrap;html=1;" parent="218" vertex="1">
                    <mxGeometry y="5" width="93.74" height="50.62" as="geometry"/>
                </mxCell>
                <mxCell id="220" value="« actor »" style="text;html=1;strokeColor=none;fillColor=none;align=center;verticalAlign=middle;whiteSpace=wrap;rounded=0;" parent="218" vertex="1">
                    <mxGeometry x="12.620000000000005" width="70" height="30" as="geometry"/>
                </mxCell>
                <mxCell id="221" value="자소서서비스" style="text;html=1;strokeColor=none;fillColor=none;align=center;verticalAlign=middle;whiteSpace=wrap;rounded=0;" parent="218" vertex="1">
                    <mxGeometry x="7.1200000000000045" y="25" width="77.5" height="30" as="geometry"/>
                </mxCell>
            </root>
        </mxGraphModel>
    </diagram>
</mxfile>